<svg width="200" height="200" viewBox="0 0 200 200" xmlns="http://www.w3.org/2000/svg">
  <defs>
    <linearGradient id="circleGradient" x1="0%" y1="0%" x2="100%" y2="100%">
      <stop offset="0%" style="stop-color:#3B82F6;stop-opacity:1" />
      <stop offset="25%" style="stop-color:#8B5CF6;stop-opacity:1" />
      <stop offset="50%" style="stop-color:#A855F7;stop-opacity:1" />
      <stop offset="75%" style="stop-color:#EC4899;stop-opacity:1" />
      <stop offset="100%" style="stop-color:#EF4444;stop-opacity:1" />
    </linearGradient>
  </defs>
  
  <!-- Circular gradient background -->
  <circle cx="100" cy="100" r="85" fill="none" stroke="url(#circleGradient)" stroke-width="12" stroke-linecap="round"/>
  
  <!-- Main company text -->
  <text x="100" y="90" text-anchor="middle" font-family="Arial, sans-serif" font-size="24" font-weight="bold" fill="#000000">EFFEMME</text>
  <text x="100" y="115" text-anchor="middle" font-family="Arial, sans-serif" font-size="14" fill="#000000">s.r.l.</text>
  
  <!-- Tool icon (top right) -->
  <g transform="translate(140, 40)">
    <path d="M2 8h12l-2 2H4l-2-2z M4 12h8v2H4v-2z M6 16h4v2H6v-2z" fill="#666666" stroke="#666666" stroke-width="1"/>
    <circle cx="14" cy="6" r="3" fill="none" stroke="#666666" stroke-width="1.5"/>
  </g>
  
  <!-- Pipe/wrench icon (left) -->
  <g transform="translate(20, 140)">
    <rect x="0" y="8" width="20" height="4" fill="#EF4444" rx="2"/>
    <rect x="2" y="6" width="2" height="8" fill="#EF4444"/>
    <rect x="16" y="6" width="2" height="8" fill="#EF4444"/>
    <circle cx="4" cy="10" r="1.5" fill="#FFFFFF"/>
    <circle cx="16" cy="10" r="1.5" fill="#FFFFFF"/>
  </g>
  
  <!-- Flame icon (bottom) -->
  <g transform="translate(85, 150)">
    <path d="M10 20c-4.4 0-8-3.6-8-8 0-2.5 1.2-4.8 3.2-6.2C6 3.6 8.8 2 12 2c1.1 0 2 .9 2 2 0 .6-.3 1.1-.7 1.4C14.4 6.6 15 8.2 15 10c0 2.8-2.2 5-5 5z" fill="#EF4444"/>
  </g>
  
  <!-- Snowflake icon (right) -->
  <g transform="translate(150, 150)">
    <path d="M12 2l-1.5 1.5L12 5l1.5-1.5L12 2z M12 19l-1.5-1.5L12 16l1.5 1.5L12 19z M5 12l1.5-1.5L8 12l-1.5 1.5L5 12z M16 12l1.5 1.5L19 12l-1.5-1.5L16 12z" fill="#3B82F6"/>
    <path d="M7.5 7.5L9 6l1.5 1.5L9 9L7.5 7.5z M15 15l1.5-1.5L18 15l-1.5 1.5L15 15z M7.5 16.5L6 15l1.5-1.5L9 15L7.5 16.5z M16.5 7.5L15 9l-1.5-1.5L15 6L16.5 7.5z" fill="#3B82F6"/>
  </g>
  
  <!-- Water drop icon (bottom right) -->
  <g transform="translate(130, 170)">
    <path d="M12 2c-4 4-8 8-8 12 0 4.4 3.6 8 8 8s8-3.6 8-8c0-4-4-8-8-12z" fill="#3B82F6"/>
  </g>
</svg>