<svg width="1200" height="630" viewBox="0 0 1200 630" xmlns="http://www.w3.org/2000/svg">
  <defs>
    <linearGradient id="bgGradient" x1="0%" y1="0%" x2="100%" y2="100%">
      <stop offset="0%" style="stop-color:#F8FAFC;stop-opacity:1" />
      <stop offset="100%" style="stop-color:#E2E8F0;stop-opacity:1" />
    </linearGradient>
    <linearGradient id="circleGradient" x1="0%" y1="0%" x2="100%" y2="100%">
      <stop offset="0%" style="stop-color:#3B82F6;stop-opacity:1" />
      <stop offset="25%" style="stop-color:#8B5CF6;stop-opacity:1" />
      <stop offset="50%" style="stop-color:#A855F7;stop-opacity:1" />
      <stop offset="75%" style="stop-color:#EC4899;stop-opacity:1" />
      <stop offset="100%" style="stop-color:#EF4444;stop-opacity:1" />
    </linearGradient>
  </defs>
  
  <!-- Background -->
  <rect width="1200" height="630" fill="url(#bgGradient)"/>
  
  <!-- Logo centered -->
  <g transform="translate(400, 115)">
    <!-- Circular gradient background -->
    <circle cx="200" cy="200" r="170" fill="none" stroke="url(#circleGradient)" stroke-width="24" stroke-linecap="round"/>
    
    <!-- Main company text -->
    <text x="200" y="180" text-anchor="middle" font-family="Arial, sans-serif" font-size="48" font-weight="bold" fill="#000000">EFFEMME</text>
    <text x="200" y="230" text-anchor="middle" font-family="Arial, sans-serif" font-size="28" fill="#000000">s.r.l.</text>
    
    <!-- Tool icon (top right) -->
    <g transform="translate(280, 80)">
      <path d="M4 16h24l-4 4H8l-4-4z M8 24h16v4H8v-4z M12 32h8v4h-8v-4z" fill="#666666" stroke="#666666" stroke-width="2"/>
      <circle cx="28" cy="12" r="6" fill="none" stroke="#666666" stroke-width="3"/>
    </g>
    
    <!-- Pipe/wrench icon (left) -->
    <g transform="translate(40, 280)">
      <rect x="0" y="16" width="40" height="8" fill="#EF4444" rx="4"/>
      <rect x="4" y="12" width="4" height="16" fill="#EF4444"/>
      <rect x="32" y="12" width="4" height="16" fill="#EF4444"/>
      <circle cx="8" cy="20" r="3" fill="#FFFFFF"/>
      <circle cx="32" cy="20" r="3" fill="#FFFFFF"/>
    </g>
    
    <!-- Flame icon (bottom) -->
    <g transform="translate(170, 300)">
      <path d="M20 40c-8.8 0-16-7.2-16-16 0-5 2.4-9.6 6.4-12.4C12 7.2 17.6 4 24 4c2.2 0 4 1.8 4 4 0 1.2-.6 2.2-1.4 2.8C28.8 13.2 30 16.4 30 20c0 5.6-4.4 10-10 10z" fill="#EF4444"/>
    </g>
    
    <!-- Snowflake icon (right) -->
    <g transform="translate(300, 300)">
      <path d="M24 4l-3 3L24 10l3-3L24 4z M24 38l-3-3L24 32l3 3L24 38z M10 24l3-3L16 24l-3 3L10 24z M32 24l3 3L38 24l-3-3L32 24z" fill="#3B82F6"/>
      <path d="M15 15L18 12l3 3L18 18L15 15z M30 30l3-3L36 30l-3 3L30 30z M15 33L12 30l3-3L18 30L15 33z M33 15L30 18l-3-3L30 12L33 15z" fill="#3B82F6"/>
    </g>
    
    <!-- Water drop icon (bottom right) -->
    <g transform="translate(260, 340)">
      <path d="M24 4c-8 8-16 16-16 24 0 8.8 7.2 16 16 16s16-7.2 16-16c0-8-8-16-16-24z" fill="#3B82F6"/>
    </g>
  </g>
  
  <!-- Company tagline -->
  <text x="600" y="550" text-anchor="middle" font-family="Arial, sans-serif" font-size="32" font-weight="600" fill="#1E293B">
    Impianti Termoidraulici - Ravenna
  </text>
  <text x="600" y="590" text-anchor="middle" font-family="Arial, sans-serif" font-size="24" fill="#64748B">
    Riscaldamento • Climatizzazione • Caldaie • Pompe di Calore
  </text>
</svg>